<svg id="Layer_1" data-name="Layer 1" xmlns="http://www.w3.org/2000/svg" viewBox="0 0 595.28 563.44"><defs><style>.cls-1{fill:#fff;}</style></defs><path class="cls-1" d="M0,297.45,28.06,288c20.67-7,39.62,0,50,30.83,10.49,31.07-.79,46.45-21.11,53.31l-28.52,9.62Zm55.28,56.71c12.13-4.09,21-17.5,16.27-31.47S53.12,302,37.31,307.37l-22.18,7.48,16,47.46Z"/><path class="cls-1" d="M34.81,211c-11.06-32.41-1.36-49.63,18.94-56.55s38.51.76,49.57,33.17c9.92,29.07-.1,46.52-20,53.33S44.72,240,34.81,211Zm61.47-21c-4.67-13-17-19-34.81-13S37.63,195.44,42,208.51c6.42,19.19,21.19,21.36,35.84,16.36C92.68,219.79,103,209.2,96.28,190Z"/><path class="cls-1" d="M127.08,59.14l-7.18,71.67-9.1-.92,8.88-88.52,20,2,15.62,76.4L186.13,48l18.43,1.85-8.87,88.52-8.49-.85,7.13-71.18L161.61,135l-14.55-1.46Z"/><path class="cls-1" d="M268.56,97.74l-5.08-16.41,17-5.26L265.74,28.45l-16.3,5-6.48-21L283.47,0,290,21l-15.83,4.9,14.73,47.61,16.53-5.11,5.08,16.41Z"/><path class="cls-1" d="M372.48,38.59l-10.93,71.07-8.67-1.33L366.4,20.39l20,3.08,28.44,81.31,11.55-75.17L435.06,31l-13.52,87.93L404,116.18Z"/><path class="cls-1" d="M536,176.71c-4,9.25-12.65,14.49-24.73,17.43-21.31,5.19-38.9-5.21-46-34.46-8.05-33,4-49.39,24.63-54.41,17.41-4.23,30.82.9,39.34,15.26l-6.53,8.74c-6.77-5.12-16-5.89-27.71-3-19.54,4.76-25.21,19.06-21.7,34s16.1,21.79,34.21,17.38c16-3.89,25.11-12.26,22.92-25.9l-24.27,5.91L504,149l31.37-7.64,10.49,43.1L539.49,186Z"/><path class="cls-1" d="M522.56,260.16c5.17-33.85,21.73-44.63,42.94-41.39s33.79,18.48,28.62,52.33c-4.64,30.36-21.59,41.21-42.43,38S517.92,290.52,522.56,260.16ZM586.77,270c1.84-13.65-6.33-24.76-24.88-27.6s-29.67,5.33-31.87,18.93c-3.17,20,8.93,28.73,24.23,31.07C569.79,294.75,583.81,290.12,586.77,270Z"/><path class="cls-1" d="M231.94,526.1C227,543,214.24,552,193.8,550.8c-20.93-1.18-34.35-16.35-32.66-46.28,1.91-33.7,17.87-46.23,39-44.91,17.27,1.1,29.35,7.52,33,26.53l-8.67,6.47c-4-5.6-12.4-9.49-25.66-10.25-18.37-1-29.27,8.24-30.29,24.05s8,26.45,27.86,27.57c13.87.79,24.91-4.45,28.61-13.76Z"/><path class="cls-1" d="M304.64,563.44,271.08,481l7.68-3.12,26.89,66,34.09-13.88,6.66,16.37Z"/><path class="cls-1" d="M442.13,443l8.28.33-2.14,52.85c-1,25.94-14.9,36.72-36.21,35.86-20.33-.82-34.25-12.6-33.21-38.42L381,440.51l8,.33-1.78,44c-.29,7.18.39,14.4,4.48,19,4.79,5.19,11.88,7.8,21.5,8.19,9,.36,16.28-1.54,21.24-6.46,3.94-4,5.57-11.12,5.83-17.58Z"/><path class="cls-1" d="M464.88,384.38l30.9-7c19.25-4.38,30.73,3.26,33.68,16.21,3,13.43,1,18.65-4.83,22.72,9.11,1.06,13.38,6.09,15.94,17.38,3.06,13.42-4.39,25.74-22.81,29.93l-33.15,7.54ZM511,415c11.17-2.54,12.63-7.63,11.34-13.33-1.11-4.87-5.69-9.08-18.29-6.22l-26.26,6,4.56,20.08Zm6.51,28.64c10.57-2.41,14.07-8.45,12.8-14s-5.84-8.67-17.73-6l-28.28,6.44,4.57,20.08Z"/><path class="cls-1" d="M328.79,385.12c-.4-.17-.72-1.12-1.31-3.77-.18-.84-.52-2.26-.74-3.14s-.5-2-.61-2.46c-.71-3-.63-2.73-2.08-7.78-.3-1.05-.44-1.57-.92-3.58s-1.06-4.13-1.57-5.95c-.41-1.45-.68-2.57-1.34-5.61-1-4.53-1.08-4.91-2.35-9.67-.23-.84-.51-1.84-.63-2.23-.2-.66-.79-2.69-1.59-5.41-.2-.68-.41-1.39-.48-1.6-.18-.49-.86-2.93-1.09-3.86-.18-.73-.25-1.06-.92-4.16-.18-.84-.4-1.85-.5-2.24a110.31,110.31,0,0,1-2.37-12.06c-1.52-9.64-1.67-10.49-2-11.72a34.14,34.14,0,0,1-1-4.26c-.17-.85-.41-2.11-.54-2.79s-.27-1.36-.29-1.49-.07-.23-.11-.22a42.82,42.82,0,0,0-1.42,4.24c-.2.77-1.34,4.23-1.85,5.59-.29.76-.81,2.17-1.14,3.13-.86,2.4-1.48,4-2.23,5.75s-1.11,2.67-2.12,5.5c-.37,1.05-.82,2.25-1,2.65a55.48,55.48,0,0,0-2.94,9,68.42,68.42,0,0,1-2.51,7.76c-.44,1.19-1.07,3-1.4,4-.83,2.6-2.19,6.65-2.52,7.53-.67,1.73-1.22,3.37-1.68,5a100.08,100.08,0,0,1-4.3,11.91c-.46,1-.85,2-1.58,3.89-.6,1.53-3.44,9.88-3.92,11.5-.64,2.15-2.51,7.38-3.24,9.09a11.83,11.83,0,0,1-1.17,2.14,1.61,1.61,0,0,1-.37.25,1.76,1.76,0,0,1-1.17-.16,3.05,3.05,0,0,0-1.34-.24,1.34,1.34,0,0,1-1-.32,1.27,1.27,0,0,0-.7-.29c-.51-.05-.63-.16-.7-.7a6.21,6.21,0,0,1,.44-2.58c1.48-4.33,2.24-6.68,2.84-8.81.12-.41.3-.95.39-1.19a7.46,7.46,0,0,0,.26-.85,6.93,6.93,0,0,1,.3-.87c.11-.24.42-1.12.69-1.94.65-1.95.66-2,.84-2.48.08-.22.4-1.15.7-2.06s.68-2,.83-2.32.47-1.15.7-1.75c.54-1.38.9-2.28,1.14-2.86.1-.25.52-1.26.92-2.25s.8-1.95.87-2.13c.31-.69,2.39-7.23,2.36-7.43s.91-2.87,1.09-3.28c.3-.69,3-8.7,3.12-9.19s1.71-4.94,2-5.43c.07-.13.51-1.44,1-2.92.8-2.52,1.14-3.67,2-6.93a50.36,50.36,0,0,1,1.69-5.14c.31-.83.95-2.52,1.4-3.74.78-2.12,1.83-4.63,2.84-6.84.59-1.3,1-2.32,1.47-3.6.39-1.09,1.17-3.11,1.71-4.41.62-1.5,1.23-3.08,1.21-3.1a11.73,11.73,0,0,0-1.11.79,48.93,48.93,0,0,1-5.6,3.61c-2.73,1.52-5.27,2.94-6.16,3.47-3,1.77-3.78,2.23-4.6,2.73-1.07.67-2.24,1.36-3.89,2.32-1.38.8-2.59,1.54-3.91,2.39-1.93,1.24-3.32,2.11-4.25,2.67-1.47.88-5.24,3.24-6.62,4.14-1.55,1-2.45,1.58-3.76,2.36-.77.45-1.84,1.11-2.38,1.46-1.38.9-3.24,2-4.38,2.68s-2,1.2-4.51,2.83l-3.15,2c-.68.45-1.63,1.09-2.12,1.45a68.83,68.83,0,0,1-6.17,4c-2.19,1.29-3.07,1.82-4.3,2.6-.65.42-1.44.91-1.74,1.09-1,.63-3,1.91-4.14,2.66a64.1,64.1,0,0,1-6.43,4.05c-1.32.71-2,.87-2.35.61-.2-.12-.25-.22-.34-.62a1.44,1.44,0,0,0-.73-1.06,2.9,2.9,0,0,1-.84-.61,4,4,0,0,1-.68-1.67,1.26,1.26,0,0,1,.1-1,4.44,4.44,0,0,1,.53-.73c.46-.48,5.87-4.17,9.3-6.34l2-1.29c.71-.46,1.61-1,2-1.24l1.27-.77c.31-.19.88-.53,1.27-.74,1.61-.92,5.31-3.33,6.78-4.43a66.18,66.18,0,0,1,10-6.15,58.85,58.85,0,0,0,6.21-3.72c1.75-1.18,2.94-1.92,4.92-3,1.8-1,3.62-2.12,4.82-2.92.89-.58,2.61-1.62,5-3,1.45-.85,1.93-1.16,3.59-2.3.9-.61,2.28-1.5,3.08-2s1.85-1.13,2.34-1.45c1.06-.68,2.35-1.45,5-3,.84-.48,2.73-1.41,5.31-2.62.8-.37,1.77-.88,2.17-1.11s1.13-.66,1.64-.93a12.19,12.19,0,0,0,2.6-1.68,10.81,10.81,0,0,1,.93-.76c.23-.15.69-.5,1-.76l.59-.48-3.33.46a74.56,74.56,0,0,1-10.46.83c-2.49.08-3.32.1-4.39.1l-1.73,0c-.52,0-1.57,0-2.32,0a76.56,76.56,0,0,0-7.82.16c-.5,0-2.07.17-3.47.32-2.44.26-4,.36-7.11.45-.79,0-2,.07-2.69.11-2.5.13-4.94.2-6.53.21a64.1,64.1,0,0,0-7.77.22c-.61.06-1.74.14-2.52.19-3.19.19-3.22.19-12.45,1.23-2.87.32-4.5.48-7.39.71l-2.75.23c-.75.07-2.09.18-3,.23-2.8.19-4.13.3-6.79.59-3.53.36-4.36.35-5.35-.16-.72-.37-.94-.58-1.07-1a3.19,3.19,0,0,0-.35-.75,1.72,1.72,0,0,1-.13-1.66c.17-.33.16-.4.06-1.07-.14-.88-.1-1,.54-1.4l.46-.3,1.12-.11c1.15-.1,2.63-.16,3.57-.14a8,8,0,0,0,1.49-.16,11.22,11.22,0,0,1,2-.21c.57,0,1.88-.1,2.91-.2s2.2-.2,2.6-.21c1.32,0,4.89-.37,6.86-.61s4.78-.51,7-.69c.76-.06,2.53-.24,3.92-.39,3.18-.35,5.26-.52,7.76-.61.46,0,1-.06,1.22-.09a40.89,40.89,0,0,1,6.26-.22c2.7.07,4.24,0,6.4-.07,1.24-.08,5-.14,6.46-.12a32.62,32.62,0,0,0,4.32-.37c1.79-.22,3.76-.42,4.37-.46,2-.14,3.24-.21,3.79-.21.3,0,.75,0,1,0,.41,0,6.2,0,6.79,0h.93c.38,0,1.3,0,2-.05l2.34-.06,2.31,0c.73,0,1.83-.06,2.46-.11l2.25-.15c1.35-.08,8.18-1,8.22-1.06a15.82,15.82,0,0,0-2-.7c-1.1-.34-2.68-.86-3.53-1.14a78.41,78.41,0,0,1-7.78-3.21c-.41-.21-1.75-.87-3-1.46s-2.86-1.43-3.61-1.85a41.53,41.53,0,0,0-4.35-2.12c-2.3-1-3.51-1.5-5.39-2.37-1.11-.52-3-1.35-4.15-1.86s-2.58-1.12-3.12-1.38c-1.06-.5-4.47-2-7.48-3.25-1-.43-2.57-1.09-3.41-1.46-1.65-.74-3.32-1.41-4.41-1.77-.38-.13-1.06-.38-1.51-.57s-1.71-.63-2.8-1a29.91,29.91,0,0,1-5.59-2.42c-1.24-.68-3.68-1.9-9.57-4.76a69.19,69.19,0,0,0-7.58-3.41c-.92-.33-5.59-1.82-7.83-2.52-1.32-.4-5.47-1.8-6-2-1.08-.44-1.57-1-1.61-1.84a2.37,2.37,0,0,1,.05-.66c.39-1,.4-1,.28-1.27-.26-.51-.18-.85.35-1.5a.94.94,0,0,0,.2-.58,1.32,1.32,0,0,1,1.17-1.38,12.56,12.56,0,0,1,3.48.79l1.16.34c.07,0,5.47,1.68,8.83,2.77a96.78,96.78,0,0,1,13.54,6.11c.92.48,2.79,1.42,4.16,2.11s3,1.51,3.53,1.82a12.27,12.27,0,0,0,3,1.29c.55.16,1.43.47,1.95.68s1.32.5,1.79.66,1.14.41,1.5.56c1.83.77,2.63,1.12,3.61,1.55,2,.89,3.37,1.49,3.94,1.68.31.1,1.16.45,1.88.77l2.22.95c.5.22,1.33.59,1.85.84s1.7.77,2.63,1.17c2,.85,3.23,1.41,6.27,2.87,1.25.6,2.51,1.19,2.8,1.31s.74.32,1,.44.72.32,1,.44a19.26,19.26,0,0,1,2.46,1.1l1.71.91c.67.35,1.74.92,2.38,1.29s1.7.93,2.34,1.26,1.82,1,2.63,1.42,1.79,1,2.17,1.12l2,1c.74.36,1.84.84,2.42,1.06,2,.73,3.35,1.2,3.43,1.2s-.12-.36-.38-.78c-1.38-2.22-1.95-3.17-2.26-3.72-.62-1.12-1.36-2.3-2.53-4.05a40.52,40.52,0,0,1-2.58-4.35c-.76-1.43-1.82-3.22-2.82-4.71-1.15-1.72-2.27-3.64-4.66-8-.26-.48-.66-1.17-.89-1.54L280.88,245c-1.12-1.78-2.07-3.39-2.92-4.92-1.71-3.11-3.79-6.59-5.78-9.66-.48-.75-.6-1-1.93-3.4-1.62-2.94-3.45-6.14-4.13-7.19-.49-.76-3.89-6.85-4.31-7.74-.21-.42-.94-1.72-1.61-2.86-.22-.37-1.26-1.93-2.31-3.47a38.57,38.57,0,0,1-3.62-6,5.18,5.18,0,0,1-.36-2.11,1,1,0,0,1,.79-1.1,2.71,2.71,0,0,0,.88-.58,3.79,3.79,0,0,1,2-1,1.33,1.33,0,0,1,1.47.31,22.79,22.79,0,0,1,2.32,3.38c.27.45.81,1.35,1.21,2s.94,1.54,1.19,2a15.78,15.78,0,0,0,1.54,2.28,36.63,36.63,0,0,1,2.46,3.71c.24.44.86,1.65,1.38,2.71a32.2,32.2,0,0,0,2.55,4.5c.33.49,1,1.53,1.48,2.31s1.15,1.86,1.48,2.38,1.17,2,1.88,3.22,1.76,2.94,2.33,3.78,1,1.55,1,1.58.12.2.26.41c.4.59,1.09,1.81,2.15,3.73.53,1,1.24,2.26,1.55,2.84.52,1,1.05,1.82,2.19,3.55.78,1.18,1.6,2.66,3.53,6.31a47.11,47.11,0,0,0,3.22,5.69c.39.58,1,1.46,1.26,2,.64,1,2.4,4.28,2.76,5.08s1.91,3.71,2.12,4c.07.12.34.6.58,1.08.39.76.86,1.57,2.22,3.89.19.34.52.86.73,1.16s.48.72.59.93.36.6.54.87,1.19,1.86,1.67,2.62c.17.28.18.25.21-1.34,0-.72.05-1.61.08-2,.12-1.36.52-5.16.65-6.11.07-.54.18-1.65.23-2.47s.17-2.11.22-2.88.16-1.95.22-2.62c.19-2,.36-4.8.37-5.95s.12-3.68.21-4.9c.07-.9.16-1.72.5-4.16.11-.82.26-1.93.32-2.47s.16-1.29.23-1.69.2-1.28.3-2c.28-1.89.53-3.45.83-5.21.15-.87.29-1.79.32-2.05.09-1,.37-3.32.49-4a50.43,50.43,0,0,0,.68-6.27c.08-1.4.23-3.18.4-4.53.09-.72.17-1.5.19-1.75s.1-.92.19-1.49.22-1.63.29-2.34.22-1.8.31-2.43.25-1.7.33-2.37c.14-1.15.29-2.12.72-4.57a59.77,59.77,0,0,0,1-7,24.89,24.89,0,0,1,.44-3.22,29,29,0,0,0,.51-2.91c0-.33.12-1.1.18-1.7s.13-1.5.13-2c0-2.23,0-2.33.27-2.82a3.83,3.83,0,0,0,.32-.74,1.45,1.45,0,0,1,.47-.83c.29-.29.3-.29.87-.32a5.75,5.75,0,0,0,1.48-.2,1.66,1.66,0,0,1,1.79.39,1.86,1.86,0,0,1,.87,1.25c0,.27-.14,3.14-.25,4a7.87,7.87,0,0,0-.06,1.24,6.57,6.57,0,0,1-.19,1.88,5.68,5.68,0,0,0-.18,1.07c0,.32-.08,1-.12,1.4s-.09,1-.1,1.21a18.74,18.74,0,0,1-.37,2.21,26,26,0,0,0-.44,3.59c0,.37-.13,1.27-.22,2-.3,2.21-.51,4-.72,6.18-.1,1-.51,3.94-.75,5.28-.07.4-.14.91-.15,1.14a8.53,8.53,0,0,1-.18,1c-.08.32-.21,1.28-.31,2.13s-.21,1.75-.26,2-.1.84-.13,1.29c-.09,1.75-.56,5.86-1,9.14-.28,1.91-.36,2.47-.65,5.07-.4,3.68-.73,6.48-.88,7.49s-.23,1.66-.71,5.27c-.08.61-.21,1.58-.27,2.17s-.18,1.38-.23,1.76a29.89,29.89,0,0,0-.39,4.7c0,.35,0,1.05-.09,1.56s-.09,1.24-.08,1.62,0,1.18,0,1.78-.06,1.59-.07,2.21-.07,1.5-.12,1.94-.08,1.06-.09,1.37c0,1.13-.48,4.25-1.15,8.11-.43,2.47-.48,2.81-.66,4.39-.21,1.91-.23,3.18,0,3.15a11.07,11.07,0,0,0,1.59-1.88c.49-.61,1.47-1.79,2.18-2.62a75.93,75.93,0,0,0,4.87-6.11c2.4-3.19,3.81-5.12,7.5-10.27.68-1,1.32-1.82,1.43-1.94s1.67-2.28,3.35-4.71c.6-.86,1.94-2.72,3-4.11,1.75-2.35,3.59-5,4.93-7.05.52-.81,1-1.54,3.08-4.42.47-.68,2-2.77,3.4-4.66,3.06-4.14,3.68-5,6.79-9.83.67-1,3.05-4.23,7.33-9.88,3.48-4.6,6.68-8.89,7.09-9.52a37.79,37.79,0,0,1,3.15-4.12c.43-.47,1.62-1.94,2.65-3.28a27.52,27.52,0,0,1,2.13-2.6,1.76,1.76,0,0,1,1.82.07l.87.55a3.41,3.41,0,0,1,1.48,1.62,2.41,2.41,0,0,1,.44,1.57,25,25,0,0,1-3.82,5.32,31.54,31.54,0,0,0-4.61,5.9c-.3.46-1.16,1.66-1.9,2.66-1.92,2.55-4.45,6.05-5.46,7.53-.48.69-1.6,2.21-2.51,3.38a60,60,0,0,0-4.16,5.93c-1.94,3-2.78,4.28-4,6-.59.81-1.34,1.87-1.67,2.35s-1.56,2.12-2.73,3.67a73.37,73.37,0,0,0-4.55,6.57,49.15,49.15,0,0,1-4.5,6.44l-1.86,2.24c-.3.36-.9,1.16-1.34,1.77s-1.82,2.46-3.07,4.11-2.41,3.22-2.58,3.48c-.35.56-2.44,3.43-3.79,5.22-.51.66-1.35,1.67-1.86,2.23-1.3,1.41-2.43,2.7-3.84,4.4-.67.79-1.46,1.72-1.76,2.05a4.35,4.35,0,0,0-.54.69c0,.09.16.05.77-.19a25.83,25.83,0,0,1,3.65-.92,23.41,23.41,0,0,0,2.5-.62c2.37-.77,2.73-.9,3.65-1.24.53-.2,1.21-.45,1.51-.54s1.8-.62,3.31-1.16,2.91-1,3.1-1.05l1.45-.4c1.36-.38,3.17-.81,4.82-1.14,1.23-.24,2.82-.64,4.81-1.2l1.49-.4c.25-.06.92-.26,1.49-.44,1.13-.36,2.46-.7,4.58-1.17.76-.18,1.62-.38,1.91-.46l1.3-.34c.43-.1,1.12-.29,1.53-.4l1.15-.32c.22-.06,1-.26,1.65-.46s1.76-.46,2.39-.6,1.69-.39,2.37-.57l1.9-.48c.38-.09.86-.23,1.08-.31s.93-.26,3.13-.82c.35-.09.79-.21,1-.29a5.56,5.56,0,0,1,.73-.18,9.46,9.46,0,0,0,1.09-.26c.66-.19,1.72-.46,3.79-.95,2.5-.6,4.88-1.32,9.15-2.77a24.15,24.15,0,0,1,3.37-1c.66-.16,1.31-.34,1.45-.4s.63-.19,1.08-.3,1.14-.28,1.52-.4c1-.29,2.37-.67,3.13-.86l1.26-.32,2-.52c1.4-.36,2.54-.67,3.42-1a10.57,10.57,0,0,1,1.21-.26c.66-.09.71-.09.95.09s.25.22.39.91a2.78,2.78,0,0,0,.4,1.12,2,2,0,0,1,.32.84,1.13,1.13,0,0,0,.24.66,1.07,1.07,0,0,1,.24.61c.1.75-.29,1-2.44,1.83l-1.82.66c-.46.18-1.89.6-3.19,1l-3,.84c-1.14.35-2.12.64-2.79.81l-2.19.58c-2.1.56-4.46,1.24-5.31,1.55a82.39,82.39,0,0,1-8,2.46c-1.05.22-2.29.52-3.44.83l-2.61.66-2.32.55c-.44.11-1.54.41-2.41.66-2.22.61-3.29.88-4.55,1.16-.6.13-1.61.37-2.24.54s-1.59.41-2.13.53-1.51.36-2.16.53-1.83.45-2.62.63a47.33,47.33,0,0,0-5.24,1.42,79.45,79.45,0,0,1-8.66,2.44,50.88,50.88,0,0,0-8.22,2.26c-.69.28-2.73,1-4.45,1.58-.73.25-1.49.51-1.71.57s-1.5.44-4.23,1.13c-1.82.47-2.82.69-4.38,1a29.91,29.91,0,0,0-3.69,1,5.2,5.2,0,0,0,1.76.62c1.28.3,3.2.72,3.85.83.31,0,1.17.21,1.91.36s2.33.47,3.53.7c2.27.43,5.22,1.07,6.32,1.35.36.1,1.11.27,1.68.38s1.26.28,1.55.37,1.24.31,2.12.48c1.93.38,2.83.58,3.13.69.12,0,1.54.32,3.15.63,3.07.59,4.67.92,5.09,1.07s3.3.76,6.48,1.36c1.72.32,3.43.68,3.81.78l1.3.33c.33.07.78.2,1,.27.39.13,1.18.31,4,.89,3.88.8,5.14,1.1,6.57,1.5a46.9,46.9,0,0,0,6.68,1.41l3.19.45c2,.28,2.61.36,4.91.63s6.27.82,7.64,1.06l2.73.47a18.29,18.29,0,0,1,4.91,1.26c.37.23.44.36.63,1.05a3.71,3.71,0,0,1,.22,1.85,2,2,0,0,0,0,.93,1.45,1.45,0,0,1-.08,1,2.08,2.08,0,0,1-2.13,1.07c-1.28,0-7.25-.86-10-1.41-3.45-.66-7.14-1.28-9.16-1.53-.58-.08-1.33-.18-1.66-.24l-1.93-.31-2.49-.42-2.18-.41c-1-.16-2.16-.43-5.06-1.14-.68-.17-2.29-.5-3.59-.74a72.54,72.54,0,0,1-8.28-1.88,34.19,34.19,0,0,0-3.5-.81,59.83,59.83,0,0,1-5.93-1.25c-1.41-.35-3-.72-3.51-.8a53.55,53.55,0,0,1-5.57-1.21c-1.09-.33-4.29-1.2-5.69-1.55-1-.25-2.93-.81-3.82-1.1-.24-.07-.79-.21-1.2-.3s-1.33-.29-2-.46l-1.95-.42c-.38-.07-1.1-.26-1.6-.4-1.15-.31-2.11-.55-3.24-.77-.47-.09-1-.22-1.27-.28s-.62-.16-.88-.21-.83-.18-1.28-.31a16.58,16.58,0,0,0-2.25-.53c0,.06,2,1.85,4.14,3.58,3,2.44,3.72,3.06,4.91,4.2.72.68,1.94,1.68,3.79,3.1,1.5,1.15,3.17,2.48,3.72,3l1.53,1.29c.77.63,1.94,1.62,2.5,2.12.26.24,1,.83,1.56,1.33s1.66,1.4,2.37,2l1.71,1.5c.5.44,2.77,2.31,3.76,3.11l1.66,1.39c2.32,2,4.42,3.69,7.91,6.4,1,.77,2.33,1.87,3,2.44l1.72,1.55c1.35,1.18,2,1.76,3.16,2.87.68.65,1.91,1.74,2.72,2.43s1.65,1.4,1.86,1.59,1.07.9,1.91,1.57,2.11,1.7,2.81,2.28l2.16,1.78,2,1.66c.62.52,2.09,1.67,3.25,2.56a81.66,81.66,0,0,1,7.85,6.56c.9.87,1,1.08,1.13,1.72.06.43.05.44-.36,1.05a3.6,3.6,0,0,0-.57,1.23,1.66,1.66,0,0,1-.46.93c-.17.17-.42.44-.57.61a1,1,0,0,1-.73.39c-.58.12-.82.05-1.81-.55-.7-.42-7.5-5.55-8.05-6.06-.16-.16-.88-.72-1.61-1.25-1.26-.91-3.78-3-4.75-3.81s-3.24-2.79-4.15-3.48c-.54-.42-1.84-1.47-2.87-2.34s-2.17-1.82-2.53-2.11-1.36-1.21-2.23-2-2-1.86-2.52-2.32l-2.13-1.9c-1.15-1-3.28-2.8-5.37-4.46-.92-.73-3.08-2.49-4.48-3.66-.27-.22-.86-.73-1.32-1.13-.89-.8-2.08-1.8-3.19-2.69-.81-.66-2.75-2.33-3.92-3.38-1-.85-3-2.65-3.79-3.27l-2.05-1.72c-2.93-2.47-3.38-2.82-5.23-4.26-1.7-1.31-3-2.49-6-5.27-.59-.55-1.41-1.28-1.83-1.63s-1.22-1-1.8-1.54a6.37,6.37,0,0,0-1.07-.85,10,10,0,0,0,.67,3,49.34,49.34,0,0,1,1.64,7.28c.83,5.07,1.28,7.66,1.53,8.93.14.71.32,1.6.41,2s.26,1.2.4,1.8.35,1.43.44,1.87.29,1.17.42,1.64c.21.79.57,2.26,1,4.3s1.47,5.68,2.64,9.51c.53,1.76,1.12,3.74,1.45,4.9.6,2.15.81,3,1.34,5,.33,1.29.75,3.09.95,4a97.17,97.17,0,0,0,2.6,10.45c.28.94.58,2,.67,2.33.44,1.71.86,3.29,1.2,4.47.2.71.58,2,.83,2.93s.67,2.5.92,3.54.69,2.9,1,4.11a33.15,33.15,0,0,1,1.07,5c.12,1.06.06,1.35-.31,1.66a2.13,2.13,0,0,1-.52.27,1.18,1.18,0,0,0-.46.26,1.19,1.19,0,0,1-.43.25,1.73,1.73,0,0,0-.41.21.49.49,0,0,1-.23.14,1,1,0,0,0-.3.28c-.2.26-.23.27-.71.3a7.14,7.14,0,0,1-.76,0,.52.52,0,0,0-.42.12,1.38,1.38,0,0,1-1.13.14"/></svg>